HIERARCHY
ROOT Spine
{
    OFFSET 0.0 0.0 -0.0
    CHANNELS 6 Xposition Yposition Zposition Zrotation Xrotation Yrotation
    JOINT ShoulderCenter
    {
        OFFSET 0.0 33.28940963745117 0.0
        CHANNELS 3 Zrotation Xrotation Yrotation
        JOINT LeftShoulder
        {
            OFFSET 17.853328704833984 0.0 0.0
            CHANNELS 3 Zrotation Xrotation Yrotation
            JOINT LeftElbow
            {
                OFFSET 30.745092391967773 0.0 0.0
                CHANNELS 3 Zrotation Xrotation Yrotation
                JOINT LeftHand
                {
                    OFFSET 32.48783874511719 0.0 0.0
                    CHANNELS 3 Zrotation Xrotation Yrotation
                    End Site
                    {
                        OFFSET 12.995136260986328 0.0 0.0
                    }
                }
            }
        }
        JOINT RightShoulder
        {
            OFFSET -17.853328704833984 0.0 0.0
            CHANNELS 3 Zrotation Xrotation Yrotation
            JOINT RightElbow
            {
                OFFSET -30.745092391967773 0.0 0.0
                CHANNELS 3 Zrotation Xrotation Yrotation
                JOINT RightHand
                {
                    OFFSET -32.48783874511719 0.0 0.0
                    CHANNELS 3 Zrotation Xrotation Yrotation
                    End Site
                    {
                        OFFSET -12.995136260986328 0.0 0.0
                    }
                }
            }
        }
        End Site
        {
            OFFSET 0.0 13.315763473510742 0.0
        }
    }
    JOINT LeftHip
    {
        OFFSET 16.149140227137522 -16.149140227137522 0.0
        CHANNELS 3 Zrotation Xrotation Yrotation
        JOINT LeftKnee
        {
            OFFSET 0.0 -42.909881591796875 0.0
            CHANNELS 3 Zrotation Xrotation Yrotation
            JOINT LeftFoot
            {
                OFFSET 0.0 -45.58283996582031 0.0
                CHANNELS 3 Zrotation Xrotation Yrotation
                End Site
                {
                    OFFSET 0.0 0.0 18.233135223388672
                }
            }
        }
    }
    JOINT RightHip
    {
        OFFSET -16.149140227137522 -16.149140227137522 0.0
        CHANNELS 3 Zrotation Xrotation Yrotation
        JOINT RightKnee
        {
            OFFSET 0.0 -42.909881591796875 0.0
            CHANNELS 3 Zrotation Xrotation Yrotation
            JOINT RightFoot
            {
                OFFSET 0.0 -45.58283996582031 0.0
                CHANNELS 3 Zrotation Xrotation Yrotation
                End Site
                {
                    OFFSET 0.0 0.0 18.233135223388672
                }
            }
        }
    }
}
MOTION
Frames: 4
Frame Time: 0.03333333333333333
39.5 2.200000047683716 -0.4000000059604645 7.085174850396752 -57.59506357791143 -170.88780682562313 1.852161790887676e-07 1.7765436004913052e-06 -4.34797035021057 119.30223390616271 -20.21942086155128 -161.7747976324771 -3.4640088884422383e-06 -6.536222703404458e-07 78.19666261563341 -6.3611093629270335e-15 1.7655625192200634e-31 -3.1805546814635168e-15 -117.07128776117545 -27.47345736070731 156.48439663040432 2.5424850362300657e-06 9.00019080367148e-06 -83.25328312317482 1.1034765745125397e-32 -3.975693351829396e-16 3.1805546814635168e-15 37.66506635262131 -55.31787089703069 113.70366348229369 19.039094664528633 -0.709539144318046 4.144953005664483 -2.7829853462805768e-15 3.975693351829398e-16 -7.95138670365879e-15 -33.79777736370685 -55.06006913194855 -119.03451727580475 -24.35034870247112 -8.098280262684733 -55.601408294118855 3.1805546814635176e-15 -2.3854160110976384e-15 6.620859447075238e-32
39.70000076293945 2.8000001907348633 -0.4000000059604645 7.553174977039017 -56.79831376034076 -171.7389504123271 1.314059159850685e-07 -6.627243967501562e-06 -3.1354658454901534 119.9078733870113 -20.70098455055469 -161.0385050041154 -8.394463922171091e-06 -6.122162464685321e-06 76.55151017262808 0.0 0.0 3.1805546814635176e-15 -117.85022631086571 -27.8366760710163 155.6095788997673 6.4878169537368585e-06 -1.5506418225630085e-06 -81.17894277214606 0.0 0.0 0.0 37.30161063049463 -53.06980745311851 113.62528493520823 17.209652450981995 -1.1681737534123586 6.8594963605912005 7.951386703658794e-16 -3.975693351829396e-16 6.361109362927035e-15 -29.550890385491453 -54.748667680300436 -113.10838069436828 -23.212633871124222 -7.910166176643099 -54.23245432578969 0.0 0.0 5.565970692561154e-15
39.70000076293945 3.0999999046325684 -0.4000000059604645 7.99999099546558 -55.90682665036113 -171.14504241301663 -8.062724925736056e-08 -1.4641425837950462e-06 -3.378280931185041 119.99689223388862 -20.40030305154676 -160.46882847307722 1.0993752586530593e-06 8.278479214624874e-07 74.37591983170684 6.3611093629270335e-15 0.0 0.0 -118.16353014935719 -28.306850898563475 154.80706154190904 8.371400674605645e-07 2.309721344457095e-06 -79.32133236763786 0.0 6.3611093629270335e-15 0.0 35.38153493489031 -52.194403980333455 109.80458674848926 16.07751642352987 -1.7106058463932208 9.591399575585108 -2.3854160110976376e-15 -3.1805546814635168e-15 -4.373262687012335e-15 -28.18497311536382 -53.50342348960235 -111.22281168923763 -22.377095680712994 -7.814049125633757 -53.490992785709274 3.1805546814635164e-15 -3.1805546814635164e-15 2.385416011097637e-15
39.70000076293945 3.4000000953674316 -0.4000000059604645 7.7920852488729215 -54.913620174556506 -171.9396645173178 -5.665715175354333e-08 2.8284640121282188e-06 -3.0073143449299353 119.55277411153104 -20.585311320276197 -160.33144173224585 2.8589269825395046e-06 2.0189030682366203e-06 72.20883842046824 6.361109362927032e-15 -1.7655625192200634e-31 -3.180554681463516e-15 -118.52008014829575 -29.099567347153698 153.94861303258565 4.5553626428857214e-06 -7.248383835823874e-07 -77.03525877354123 0.0 0.0 0.0 34.70361658970782 -50.323246702825145 109.1866548316748 15.127143621265727 -1.9203778634228819 11.57264072454342 1.5902773407317582e-15 5.793252016190833e-32 4.174478019420865e-15 -26.59376289685826 -52.06209933847697 -110.23838318350496 -20.979180141117915 -7.708435824934387 -53.0069502493121 -3.1805546814635168e-15 -3.1805546814635168e-15 7.951386703658791e-16
